<?xml version="1.0" encoding="UTF-8"?>
<svg width="122px" height="40px" viewBox="0 0 122 40" version="1.1" xmlns="http://www.w3.org/2000/svg" xmlns:xlink="http://www.w3.org/1999/xlink">
    <title>hello</title>
    <style>
        path {
            fill: black;
        }
        @media (prefers-color-scheme: dark) {
            path { fill: white; }
        }
    </style>
    <g id="Page-4" stroke="none" stroke-width="1" fill="none" fill-rule="evenodd">
        <g id="Desktop-L1-Copy-8" transform="translate(-470.000000, -368.000000)" fill="#FFFFFF">
            <g id="hello-imac-seeklogo.com" transform="translate(470.000000, 368.000000)">
                <path d="M41.1261536,32.5853355 C41.448409,32.3548194 41.7268747,32.1794787 41.9781065,31.9716431 C42.9849373,31.1387335 43.9741364,30.293123 44.84637,29.3076357 C45.5862412,28.4717571 46.2614627,27.5984351 46.659129,26.5659374 C47.126329,25.3529031 47.3365028,24.0921986 46.8265893,22.8175559 C46.4762721,21.9417597 45.7468309,21.450047 44.813507,21.4123562 C43.9609747,21.3779643 43.2744954,21.7062951 42.641739,22.2420492 C41.5306077,23.1828353 40.992798,24.4321583 40.5996844,25.7851518 C40.1521857,27.3250323 40.2824785,28.8899851 40.3739484,30.4442986 C40.416248,31.1642181 40.6520002,31.8869418 41.1261536,32.5853355 M16.9633722,20.0807236 C17.044412,20.1121464 17.1253691,20.1436517 17.2063261,20.1750744 C17.3897625,19.9736718 17.5871885,19.7830733 17.7544004,19.5690521 C18.8282815,18.194038 19.7728632,16.736467 20.6771319,15.2429371 C22.0082048,13.044498 23.0110623,10.7351308 23.3778524,8.18939187 C23.5009435,7.33528642 23.5027646,6.44744891 23.423877,5.58748778 C23.3823224,5.1347855 23.0993038,4.67177391 22.8235698,4.28546357 C22.6720029,4.07309185 22.3199474,3.93206053 22.0399089,3.89428723 C21.1331568,3.77173019 20.5180323,4.27828829 20.0796391,4.98921809 C19.7995178,5.44356986 19.5937312,5.94946816 19.4006926,6.44992315 C18.8074214,7.98848409 18.5122345,9.60556072 18.2383215,11.2198332 C17.8486847,13.5160045 17.518317,15.8222377 17.176526,18.126244 C17.0804205,18.7740809 17.0330714,19.429093 16.9633722,20.0807236 M61.6534006,26.767505 C61.7360133,26.7989278 61.8185431,26.8303505 61.9011557,26.8618558 C62.0579376,26.6750511 62.2414567,26.5045764 62.3669484,26.2988851 C62.9280189,25.3795424 63.5021682,24.4662203 64.0160551,23.5207331 C64.8118016,22.0567291 65.6345338,20.6004777 66.314722,19.0826178 C67.2915872,16.902653 68.0250845,14.6293272 68.5076812,12.2852382 C68.9579944,10.0976858 69.3258606,7.89899931 69.1927533,5.65115806 C69.1747077,5.34567268 69.1627048,5.03251717 69.0850589,4.73940296 C68.8536939,3.86616344 67.9340285,3.53494603 67.2286758,4.10575173 C66.7954976,4.45626816 66.3964241,4.88142397 66.0844331,5.34196133 C65.0514444,6.86699646 64.428787,8.58551667 63.9195357,10.3353772 C63.2818955,12.5262286 62.7497975,14.746111 62.4670273,17.0153956 C62.2740713,18.5647607 62.0946911,20.1159402 61.9331909,21.6688517 C61.8168048,22.7880301 61.723431,23.91026 61.6523245,25.0332322 C61.6159021,25.6089863 61.6507517,26.1892766 61.6534006,26.767505 M80.3268307,27.0012376 L80.5116743,27.053114 C80.8969239,26.4846176 81.3031991,25.9290697 81.6635325,25.3453155 C82.768621,23.5554549 83.7795908,21.7155323 84.6836939,19.8137538 C85.7138682,17.64682 86.476669,15.391886 86.9657224,13.05423 C87.3320986,11.30272 87.6070877,9.52885948 87.8396115,7.7540917 C87.9722222,6.74171777 87.9603021,5.70575615 87.6952464,4.69824821 C87.4235685,3.66583299 86.6596088,3.43152307 85.8509489,4.14146317 C85.1898824,4.72175343 84.6504999,5.39218827 84.2455491,6.18559252 C83.1164549,8.39772234 82.4124266,10.7514608 81.8751135,13.1573231 C81.3669383,15.4325459 80.9422863,17.7239336 80.7506549,20.0532597 C80.6311232,21.5057997 80.4402368,22.9528965 80.3379229,24.4063438 C80.2773293,25.2672947 80.3268307,26.1359981 80.3268307,27.0012376 M103.963722,36.0234481 C104.845806,36.1347886 105.738486,35.9373447 106.54607,35.4199 C107.996344,34.4907428 109.052179,33.2307806 109.670532,31.6208792 C110.06886,30.5838454 110.25089,29.5127497 110.321499,28.3977775 C110.408665,27.0199593 110.287726,25.692368 109.80844,24.4020552 C109.498353,23.5671663 109.006651,22.8336385 108.259164,22.342668 C106.545739,21.2172216 104.765263,21.2839435 103.00035,22.2184615 C102.100055,22.6951639 101.372683,23.4300937 100.807474,24.2433743 C99.22103,26.5262672 98.6526752,29.0861093 99.0553909,31.8365499 C99.2019911,32.8375424 99.5718439,33.7783285 100.242016,34.5540832 C101.195786,35.6580037 102.433402,36.1272834 103.963722,36.0234481 M113.791974,24.2252299 C113.873097,24.8168192 113.966139,25.4442024 114.044116,26.0734 C114.316622,28.2713442 114.100571,30.4220305 113.360534,32.5105311 C112.97454,33.5996888 112.503946,34.6477742 111.820447,35.5993644 C110.170098,37.8968553 108.013479,39.4500967 105.180479,39.815376 C101.522511,40.2871299 98.5607914,39.0064666 96.4424153,35.9457571 C96.1971436,35.5913644 96.0310906,35.1827035 95.7734022,34.6954444 C95.5710923,34.8609706 95.3779709,34.9698369 95.2509892,35.1305796 C94.0545963,36.6455529 92.587105,37.8489376 90.8851859,38.7363628 C89.5314317,39.4423441 88.0709765,39.8406957 86.5197137,39.8907577 C84.9465974,39.9416444 83.4591565,39.7084891 82.0367793,38.9848583 C80.7422943,38.3262173 79.7083122,37.4076168 78.8648855,36.2491806 C78.7172092,36.046211 78.5603446,35.8499218 78.3625875,35.5916943 C78.0419877,35.7966433 77.7568169,35.9563138 77.4962312,36.1490566 C75.5390243,37.5970606 73.4497033,38.7881567 71.0801783,39.4335193 C68.8529489,40.0402014 66.6310174,40.1316656 64.3900468,39.4505915 C62.6265408,38.9145901 61.3566409,37.7757828 60.2921965,36.3465005 C60.0827677,36.0651801 59.8754912,35.7822103 59.6255839,35.4434877 C59.287104,35.7151585 59.0251111,35.9527674 58.7367947,36.1525206 C56.6763634,37.579741 54.5161843,38.8176001 52.0593283,39.4354987 C50.2844816,39.8818505 48.499536,40.127212 46.6424906,39.9325722 C44.9541471,39.7555821 43.349989,39.3865914 41.8350658,38.6359089 C41.4671996,38.4536403 41.1074457,38.2475367 40.7691314,38.0161133 C40.362525,37.737927 39.9866293,37.7390817 39.5421934,37.9478245 C38.1883564,38.5837025 36.7826176,39.1041988 35.3128085,39.3801583 C34.0538353,39.6165301 32.7711049,39.8335204 31.4958244,39.8521596 C29.6580663,39.8792113 27.9006031,39.411911 26.4888214,38.1645674 C25.23705,37.0587499 24.6279682,35.58122 24.5757352,33.931566 C24.542624,32.8878518 24.633266,31.8306117 24.7719195,30.7931656 C24.9957516,29.1181094 25.2984714,27.4531976 25.5807449,25.7861415 C25.7046639,25.054758 25.611704,24.3400344 25.3514494,23.6690222 C24.9219135,22.5616377 24.1796417,22.1783789 22.8882195,22.2465853 C21.7523375,22.3066267 20.7550261,22.7880301 19.9484357,23.61962 C18.8854812,24.7153756 18.038495,25.9452347 17.3812364,27.3308055 C16.0672985,30.1005451 15.424195,33.0404295 15.0056686,36.0455512 C14.9139503,36.7045221 14.8944147,37.3754518 14.7709097,38.0274948 C14.5759671,39.0563636 13.8949511,39.5814785 12.8693296,39.573396 C11.7196237,39.5643238 10.9732957,38.856528 10.9756135,37.6997413 C10.976938,37.0368117 11.0727123,36.3729748 11.1450604,35.7116121 C11.2703038,34.5667842 11.4129306,33.4239357 11.5402434,32.2794377 C11.553074,32.1643034 11.5110227,32.0431484 11.4769181,31.8000962 C11.2178224,31.9729626 11.029171,32.0810867 10.8603035,32.2142829 C8.92379108,33.7422046 6.95706461,35.2280644 4.84291022,36.5086453 C4.22762011,36.8814298 3.6157239,37.2608948 2.98801706,37.611906 C2.43977726,37.9185461 1.87912073,38.1193714 1.22566988,37.8562779 C-0.133050949,37.3093073 -0.44280685,35.5783334 0.705905773,34.6689701 C1.32864592,34.1760203 2.00668189,33.7463284 2.68744953,33.3333788 C5.13370992,31.8493334 7.4226918,30.1547308 9.56821911,28.2684576 C10.3580056,27.5741051 11.1068169,26.8336495 11.8796339,26.1200805 C12.1773869,25.8451107 12.3137226,25.5215634 12.36728,25.1138097 C12.8041832,21.78745 13.2368647,18.4600181 13.7249248,15.1408337 C14.0565341,12.8854048 14.4113213,10.6293986 14.8786041,8.3991244 C15.171556,7.0008525 15.5952147,5.61049815 16.1359217,4.2879378 C16.7759624,2.72257266 17.7680588,1.37056893 19.3700646,0.61040188 C22.3206096,-0.789766932 25.8347911,0.450318964 26.9189368,3.79927666 C27.4097285,5.31515713 27.4482204,6.87029544 27.2378811,8.43904204 C26.8473337,11.3519573 25.8669091,14.0570369 24.3648992,16.5808377 C24.1157369,16.999478 23.8823025,17.4278503 23.6549937,17.8586144 C23.5760233,18.0083056 23.5372003,18.1790277 23.4651833,18.3820798 C23.6366997,18.4273583 23.7532514,18.4740388 23.8734453,18.4874821 C25.1941709,18.6349465 26.3299701,19.1939583 27.3635383,20.0032801 C28.123773,20.5985807 28.548425,21.4049335 28.8854149,22.2759462 C29.4681732,23.7820122 29.4552598,25.3478722 29.2631317,26.9053198 C29.0500607,28.6326648 28.7045446,30.3435149 28.4735108,32.0690454 C28.382372,32.7495421 28.413331,33.4518121 28.4449523,34.1416284 C28.4788086,34.8779604 28.9263073,35.3490544 29.5636164,35.6824987 C30.5096881,36.1774279 31.5259557,36.0697162 32.5177209,36.0011799 C33.882319,35.9069116 35.2073491,35.5690138 36.4991852,35.1163115 C36.6447092,35.0653423 36.7884949,35.0078576 36.9285555,34.94361 C37.6630462,34.6071142 37.7012069,34.527114 37.3965833,33.7783285 C36.2862797,31.0493312 36.1859526,28.254107 36.7923027,25.3991713 C37.05562,24.1591679 37.4741464,22.9861337 38.0714737,21.8683574 C39.3102489,19.5500005 41.1545465,18.0434397 43.8122223,17.6944078 C45.890451,17.4215823 47.7497314,17.9792745 49.2390762,19.4806395 C50.2241364,20.4735495 50.76385,21.7140477 50.9512598,23.1065464 C51.2496751,25.3253567 50.7347121,27.3619809 49.6667082,29.3061512 C48.607396,31.2345689 47.0596926,32.719274 45.4234166,34.1353604 C44.9829539,34.5163923 44.5439813,34.8990738 43.9839042,35.3856731 C44.3506115,35.5486426 44.5831354,35.6805193 44.8327116,35.7581277 C46.0504612,36.1368504 47.305461,36.2813457 48.5703114,36.1705825 C50.3219802,36.017015 52.0224093,35.652313 53.6113362,34.8393623 C55.0880159,34.0838963 56.3988909,33.1049245 57.6643208,32.0521381 C58.0931945,31.6953536 58.2864815,31.2720947 58.1965016,30.6992272 C57.7805413,28.0501477 57.8585184,25.3925734 58.0484115,22.7286485 C58.2324273,20.1453011 58.5586561,17.5831497 58.9856259,15.0296582 C59.4861855,12.0359179 60.2410396,9.11120884 61.373776,6.29503612 C62.0845921,4.52777351 62.9774374,2.849006 64.3869841,1.51118787 C65.9771526,0.00190535518 67.851747,-0.360487397 69.8893316,0.350772297 C71.5926579,0.945330639 72.5077706,2.2959323 72.8719945,3.9963906 C73.1395335,5.24538374 73.21809,6.50295422 73.1094851,7.80712277 C72.9062647,10.247212 72.467292,12.6311361 71.8464558,14.9886684 C71.303431,17.0505297 70.5492391,19.0345352 69.6632644,20.9792004 C68.3072753,23.9555385 66.59534,26.7235461 64.8231422,29.4583165 C64.2383145,30.360917 63.5702947,31.2133729 62.8974737,32.0546948 C62.6123857,32.4112319 62.6026179,32.7002224 62.7736376,33.1019555 C63.8250859,35.5731375 66.0013239,36.431944 68.4172047,36.117139 C71.1421791,35.7620865 73.3898547,34.4824129 75.5091413,32.8045526 C76.5429579,31.9859936 76.9272969,31.2189812 76.6565295,29.8953487 C76.2548899,27.9322917 76.4085261,25.9077088 76.4803776,23.9133115 C76.5392329,22.279905 76.7250698,20.6437767 76.9678582,19.0257104 C77.3060898,16.7723434 77.6971339,14.5239248 78.1616022,12.2931558 C78.7806173,9.31962179 79.7177489,6.43540764 81.2675218,3.80661688 C82.0176575,2.53428348 82.9349224,1.35052763 84.3012588,0.600834843 C86.3491906,-0.522797124 89.6083326,-0.16279613 90.8428862,2.5125927 C91.3122384,3.52975014 91.5791152,4.56439217 91.6080048,5.69544684 C91.7231492,10.203583 90.7457874,14.5052031 89.1845912,18.6936683 C87.9715599,21.9478628 86.3611935,25.0140156 84.4875097,27.9354257 C83.5749632,29.3581925 82.5586956,30.715887 81.5646126,32.0852104 C81.3441743,32.3888813 81.2621412,32.6396037 81.4166052,32.9958108 C82.2034117,34.8101664 83.4949167,36.0236955 85.5299351,36.1361906 C87.175979,36.22716 88.7474397,35.8450558 90.1062433,34.8220427 C92.2255299,33.2263269 93.5836713,31.100053 94.5624404,28.6734072 C95.2521481,26.9634643 95.773485,25.190346 96.6460496,23.5462177 C97.6359937,21.6807281 98.9697155,20.1437341 100.778253,19.0831951 C102.834214,17.8775835 105.048696,17.4021183 107.453484,17.9163465 C108.718997,18.1869452 109.807695,18.7998954 110.92876,19.3622062 C111.697521,19.7478567 112.481099,20.040806 113.337853,20.1297959 C115.347541,20.3385388 117.044411,19.7569289 118.331694,18.1559348 C118.774144,17.6056653 119.221891,17.1069422 120.024342,17.1008391 C121.541169,17.0892927 122.499741,18.5861216 121.72593,19.8817128 C121.349952,20.5111578 120.863133,21.1090151 120.314149,21.5952021 C118.624481,23.0913711 116.619511,23.8881568 114.358839,24.0346315 C114.231775,24.0427964 114.10471,24.0657243 113.98046,24.0940131 C113.934766,24.1043224 113.897268,24.1499308 113.791974,24.2252299" id="Fill-1"></path>
            </g>
        </g>
    </g>
</svg>
